<?xml version="1.0" standalone="no"?>
<!DOCTYPE svg PUBLIC "-//W3C//DTD SVG 1.1//EN" "http://www.w3.org/Graphics/SVG/1.1/DTD/svg11.dtd">
<svg version="1.1" xmlns="http://www.w3.org/2000/svg" viewBox="0 0 190.39280888667656 163.48868116772772" width="571.1784266600297" height="490.4660435031832"><!-- svg-source:excalidraw --><metadata></metadata><defs><style class="style-fonts">
      </style></defs><g stroke-linecap="round" transform="translate(10 72.77629801088088) rotate(0 17.93608514596599 40.35619157842342)"><path d="M0 0 L35.87 0 L35.87 80.71 L0 80.71" stroke="none" stroke-width="0" fill="#343a40"></path><path d="M0 0 C11.08 0, 22.17 0, 35.87 0 M0 0 C9.03 0, 18.06 0, 35.87 0 M35.87 0 C35.87 19.58, 35.87 39.16, 35.87 80.71 M35.87 0 C35.87 21.52, 35.87 43.05, 35.87 80.71 M35.87 80.71 C24.96 80.71, 14.05 80.71, 0 80.71 M35.87 80.71 C25.07 80.71, 14.27 80.71, 0 80.71 M0 80.71 C0 64.55, 0 48.38, 0 0 M0 80.71 C0 52.02, 0 23.32, 0 0" stroke="#343a40" stroke-width="2" fill="none"></path></g><g stroke-linecap="round" transform="translate(63.808255437897856 81.74434058386386) rotate(0 58.29227672438935 35.87217029193193)"><path d="M0 0 L116.58 0 L116.58 71.74 L0 71.74" stroke="none" stroke-width="0" fill="#1e1e1e"></path><path d="M0 0 C34.75 0, 69.49 0, 116.58 0 M0 0 C41.41 0, 82.81 0, 116.58 0 M116.58 0 C116.58 24.92, 116.58 49.85, 116.58 71.74 M116.58 0 C116.58 23.43, 116.58 46.86, 116.58 71.74 M116.58 71.74 C73.45 71.74, 30.31 71.74, 0 71.74 M116.58 71.74 C77.24 71.74, 37.9 71.74, 0 71.74 M0 71.74 C0 45.32, 0 18.9, 0 0 M0 71.74 C0 53.72, 0 35.71, 0 0" stroke="#1e1e1e" stroke-width="2" fill="none"></path></g><g stroke-linecap="round" transform="translate(90.71238315684684 54.84021286491491) rotate(0 8.968042572982995 13.452063859474475)"><path d="M0 0 L17.94 0 L17.94 26.9 L0 26.9" stroke="none" stroke-width="0" fill="#2f9e44"></path><path d="M0 0 C6.05 0, 12.11 0, 17.94 0 M0 0 C6.61 0, 13.21 0, 17.94 0 M17.94 0 C17.94 6.76, 17.94 13.51, 17.94 26.9 M17.94 0 C17.94 8.79, 17.94 17.57, 17.94 26.9 M17.94 26.9 C12.38 26.9, 6.82 26.9, 0 26.9 M17.94 26.9 C12.29 26.9, 6.65 26.9, 0 26.9 M0 26.9 C0 16.65, 0 6.4, 0 0 M0 26.9 C0 19.09, 0 11.28, 0 0" stroke="#2f9e44" stroke-width="2" fill="none"></path></g><g stroke-linecap="round" transform="translate(126.58455344877882 45.87217029193193) rotate(0 13.452063859474492 17.936085145965965)"><path d="M0 0 L26.9 0 L26.9 35.87 L0 35.87" stroke="none" stroke-width="0" fill="#1971c2"></path><path d="M0 0 C9.6 0, 19.21 0, 26.9 0 M0 0 C8.51 0, 17.02 0, 26.9 0 M26.9 0 C26.9 14.16, 26.9 28.31, 26.9 35.87 M26.9 0 C26.9 8.92, 26.9 17.83, 26.9 35.87 M26.9 35.87 C20.87 35.87, 14.84 35.87, 0 35.87 M26.9 35.87 C18.81 35.87, 10.71 35.87, 0 35.87 M0 35.87 C0 23.25, 0 10.63, 0 0 M0 35.87 C0 21.87, 0 7.86, 0 0" stroke="#1971c2" stroke-width="2" fill="none"></path></g><g stroke-linecap="round"><g transform="translate(27.93608514596599 72.77629801088088) rotate(0 4.4840212864914974 -22.420106432457455)"><path d="M0 0 C2.01 -10.05, 4.02 -20.1, 8.97 -44.84 M0 0 C2.7 -13.5, 5.4 -26.99, 8.97 -44.84" stroke="#343a40" stroke-width="4" fill="none"></path></g></g><mask></mask><g stroke-linecap="round"><g transform="translate(36.904127718948985 27.936085145965965) rotate(0 17.93608514596599 -8.968042572982982)"><path d="M0 0 C10.54 -5.27, 21.09 -10.54, 35.87 -17.94 M0 0 C13.25 -6.63, 26.51 -13.25, 35.87 -17.94" stroke="#343a40" stroke-width="4" fill="none"></path></g></g><mask></mask><g stroke-linecap="round"><g transform="translate(72.77629801088085 10) rotate(0 13.452063859474492 8.968042572982982)"><path d="M0 0 C8.41 5.6, 16.81 11.21, 26.9 17.94 M0 0 C8.54 5.69, 17.08 11.38, 26.9 17.94" stroke="#343a40" stroke-width="4" fill="none"></path></g></g><mask></mask><g stroke-linecap="round"><g transform="translate(99.68042572982984 27.936085145965965) rotate(0 0 4.484021286491491)"><path d="M0 0 C0 3.2, 0 6.41, 0 8.97 M0 0 C0 3.52, 0 7.05, 0 8.97" stroke="#343a40" stroke-width="4" fill="none"></path></g></g><mask></mask><g stroke-linecap="round"><g transform="translate(99.68042572982984 27.936085145965965) rotate(0 4.4840212864914974 0)"><path d="M0 0 C3.52 0, 7.05 0, 8.97 0 M0 0 C2.17 0, 4.34 0, 8.97 0" stroke="#343a40" stroke-width="4" fill="none"></path></g></g><mask></mask><g stroke-linecap="round"><g transform="translate(108.64846830281283 27.936085145965965) rotate(0 4.4840212864914974 4.484021286491491)"><path d="M0 0 C3.02 3.02, 6.04 6.04, 8.97 8.97 M0 0 C3.19 3.19, 6.38 6.38, 8.97 8.97" stroke="#343a40" stroke-width="4" fill="none"></path></g></g><mask></mask><g stroke-linecap="round"><g transform="translate(99.68042572982984 36.90412771894895) rotate(0 4.4840212864914974 4.484021286491491)"><path d="M0 0 C2.43 2.43, 4.85 4.85, 8.97 8.97 M0 0 C2.41 2.41, 4.82 4.82, 8.97 8.97" stroke="#343a40" stroke-width="4" fill="none"></path></g></g><mask></mask></svg>